<mxfile host="app.diagrams.net" modified="2022-03-17T13:52:19.204Z" agent="5.0 (Windows NT 10.0; Win64; x64) AppleWebKit/537.36 (KHTML, like Gecko) Chrome/99.0.4844.51 Safari/537.36" etag="M_IwnOAXUEVYF5-_XR2G" version="17.1.3" type="github" pages="3">
  <diagram id="-MDriquDOU_flxYND0es" name="Page-1">
    <mxGraphModel dx="1108" dy="482" grid="1" gridSize="10" guides="1" tooltips="1" connect="1" arrows="1" fold="1" page="1" pageScale="1" pageWidth="827" pageHeight="1169" math="0" shadow="0">
      <root>
        <mxCell id="0" />
        <mxCell id="1" parent="0" />
        <mxCell id="aQO_VSZlId-RK-wUqM6t-1" value="INICIO" style="rounded=1;whiteSpace=wrap;html=1;" vertex="1" parent="1">
          <mxGeometry x="80" y="40" width="120" height="60" as="geometry" />
        </mxCell>
        <mxCell id="aQO_VSZlId-RK-wUqM6t-2" value="FIM" style="rounded=1;whiteSpace=wrap;html=1;" vertex="1" parent="1">
          <mxGeometry x="360" y="40" width="120" height="60" as="geometry" />
        </mxCell>
        <mxCell id="aQO_VSZlId-RK-wUqM6t-3" value="ENTRADA" style="shape=parallelogram;perimeter=parallelogramPerimeter;whiteSpace=wrap;html=1;fixedSize=1;" vertex="1" parent="1">
          <mxGeometry x="80" y="160" width="120" height="60" as="geometry" />
        </mxCell>
        <mxCell id="aQO_VSZlId-RK-wUqM6t-4" value="SAIDA" style="shape=document;whiteSpace=wrap;html=1;boundedLbl=1;" vertex="1" parent="1">
          <mxGeometry x="360" y="160" width="120" height="80" as="geometry" />
        </mxCell>
        <mxCell id="aQO_VSZlId-RK-wUqM6t-5" value="PROCESSAMENTO" style="rounded=0;whiteSpace=wrap;html=1;" vertex="1" parent="1">
          <mxGeometry x="80" y="280" width="120" height="60" as="geometry" />
        </mxCell>
        <mxCell id="aQO_VSZlId-RK-wUqM6t-6" value="DECISÃO" style="rhombus;whiteSpace=wrap;html=1;" vertex="1" parent="1">
          <mxGeometry x="380" y="270" width="80" height="80" as="geometry" />
        </mxCell>
      </root>
    </mxGraphModel>
  </diagram>
  <diagram id="CUywMH8firEGgWCq6wm5" name="Page-2">
    <mxGraphModel dx="1108" dy="482" grid="1" gridSize="10" guides="1" tooltips="1" connect="1" arrows="1" fold="1" page="1" pageScale="1" pageWidth="827" pageHeight="1169" math="0" shadow="0">
      <root>
        <mxCell id="aaeQFXI5SlnJPCVBed2T-0" />
        <mxCell id="aaeQFXI5SlnJPCVBed2T-1" parent="aaeQFXI5SlnJPCVBed2T-0" />
        <mxCell id="0LVw75udHM2b_XSH9-4v-4" style="edgeStyle=none;rounded=0;orthogonalLoop=1;jettySize=auto;html=1;" edge="1" parent="aaeQFXI5SlnJPCVBed2T-1" source="0LVw75udHM2b_XSH9-4v-0">
          <mxGeometry relative="1" as="geometry">
            <mxPoint x="190" y="110" as="targetPoint" />
            <Array as="points">
              <mxPoint x="180" y="110" />
            </Array>
          </mxGeometry>
        </mxCell>
        <mxCell id="0LVw75udHM2b_XSH9-4v-0" value="INICIO" style="rounded=1;whiteSpace=wrap;html=1;" vertex="1" parent="aaeQFXI5SlnJPCVBed2T-1">
          <mxGeometry x="30" y="80" width="100" height="60" as="geometry" />
        </mxCell>
        <mxCell id="0LVw75udHM2b_XSH9-4v-6" value="" style="edgeStyle=none;rounded=0;orthogonalLoop=1;jettySize=auto;html=1;" edge="1" parent="aaeQFXI5SlnJPCVBed2T-1" source="0LVw75udHM2b_XSH9-4v-1">
          <mxGeometry relative="1" as="geometry">
            <mxPoint x="370" y="110" as="targetPoint" />
          </mxGeometry>
        </mxCell>
        <mxCell id="0LVw75udHM2b_XSH9-4v-1" value="ENTRADA" style="shape=parallelogram;perimeter=parallelogramPerimeter;whiteSpace=wrap;html=1;fixedSize=1;" vertex="1" parent="aaeQFXI5SlnJPCVBed2T-1">
          <mxGeometry x="180" y="80" width="120" height="60" as="geometry" />
        </mxCell>
        <mxCell id="0LVw75udHM2b_XSH9-4v-9" style="edgeStyle=none;rounded=0;orthogonalLoop=1;jettySize=auto;html=1;" edge="1" parent="aaeQFXI5SlnJPCVBed2T-1">
          <mxGeometry relative="1" as="geometry">
            <mxPoint x="520" y="110" as="targetPoint" />
            <mxPoint x="490" y="110" as="sourcePoint" />
            <Array as="points">
              <mxPoint x="450" y="110" />
            </Array>
          </mxGeometry>
        </mxCell>
        <mxCell id="0LVw75udHM2b_XSH9-4v-13" style="edgeStyle=none;rounded=0;orthogonalLoop=1;jettySize=auto;html=1;entryX=0;entryY=0.5;entryDx=0;entryDy=0;" edge="1" parent="aaeQFXI5SlnJPCVBed2T-1" target="0LVw75udHM2b_XSH9-4v-11">
          <mxGeometry relative="1" as="geometry">
            <mxPoint x="620" y="110" as="sourcePoint" />
          </mxGeometry>
        </mxCell>
        <mxCell id="0LVw75udHM2b_XSH9-4v-14" style="edgeStyle=none;rounded=0;orthogonalLoop=1;jettySize=auto;html=1;entryX=0;entryY=0.5;entryDx=0;entryDy=0;" edge="1" parent="aaeQFXI5SlnJPCVBed2T-1" source="0LVw75udHM2b_XSH9-4v-11" target="0LVw75udHM2b_XSH9-4v-12">
          <mxGeometry relative="1" as="geometry" />
        </mxCell>
        <mxCell id="0LVw75udHM2b_XSH9-4v-11" value="SAIDA" style="shape=document;whiteSpace=wrap;html=1;boundedLbl=1;" vertex="1" parent="aaeQFXI5SlnJPCVBed2T-1">
          <mxGeometry x="680" y="80" width="100" height="60" as="geometry" />
        </mxCell>
        <mxCell id="0LVw75udHM2b_XSH9-4v-12" value="FIM" style="rounded=1;whiteSpace=wrap;html=1;" vertex="1" parent="aaeQFXI5SlnJPCVBed2T-1">
          <mxGeometry x="840" y="80" width="120" height="60" as="geometry" />
        </mxCell>
        <mxCell id="0LVw75udHM2b_XSH9-4v-15" value="INICIO" style="rounded=1;whiteSpace=wrap;html=1;" vertex="1" parent="aaeQFXI5SlnJPCVBed2T-1">
          <mxGeometry x="30" y="80" width="100" height="60" as="geometry" />
        </mxCell>
        <mxCell id="0LVw75udHM2b_XSH9-4v-18" style="edgeStyle=none;rounded=0;orthogonalLoop=1;jettySize=auto;html=1;" edge="1" parent="aaeQFXI5SlnJPCVBed2T-1" source="0LVw75udHM2b_XSH9-4v-16">
          <mxGeometry relative="1" as="geometry">
            <mxPoint x="430" y="340" as="targetPoint" />
          </mxGeometry>
        </mxCell>
        <mxCell id="0LVw75udHM2b_XSH9-4v-16" value="INICIO" style="rounded=1;whiteSpace=wrap;html=1;" vertex="1" parent="aaeQFXI5SlnJPCVBed2T-1">
          <mxGeometry x="380" y="230" width="100" height="50" as="geometry" />
        </mxCell>
        <mxCell id="0LVw75udHM2b_XSH9-4v-21" value="" style="edgeStyle=none;rounded=0;orthogonalLoop=1;jettySize=auto;html=1;" edge="1" parent="aaeQFXI5SlnJPCVBed2T-1" source="0LVw75udHM2b_XSH9-4v-17">
          <mxGeometry relative="1" as="geometry">
            <mxPoint x="430" y="430" as="targetPoint" />
          </mxGeometry>
        </mxCell>
        <mxCell id="0LVw75udHM2b_XSH9-4v-17" value="A e B" style="shape=parallelogram;perimeter=parallelogramPerimeter;whiteSpace=wrap;html=1;fixedSize=1;" vertex="1" parent="aaeQFXI5SlnJPCVBed2T-1">
          <mxGeometry x="370" y="340" width="120" height="60" as="geometry" />
        </mxCell>
        <mxCell id="F0br-8pcmRL6fZrP4729-1" value="" style="edgeStyle=none;rounded=0;orthogonalLoop=1;jettySize=auto;html=1;exitX=0.51;exitY=0.867;exitDx=0;exitDy=0;exitPerimeter=0;" edge="1" parent="aaeQFXI5SlnJPCVBed2T-1" source="0LVw75udHM2b_XSH9-4v-24">
          <mxGeometry relative="1" as="geometry">
            <mxPoint x="430" y="710" as="sourcePoint" />
            <mxPoint x="431" y="670" as="targetPoint" />
          </mxGeometry>
        </mxCell>
        <mxCell id="0LVw75udHM2b_XSH9-4v-24" value="Soma" style="shape=document;whiteSpace=wrap;html=1;boundedLbl=1;" vertex="1" parent="aaeQFXI5SlnJPCVBed2T-1">
          <mxGeometry x="380" y="555" width="100" height="60" as="geometry" />
        </mxCell>
        <mxCell id="0LVw75udHM2b_XSH9-4v-25" value="FIM" style="rounded=1;whiteSpace=wrap;html=1;" vertex="1" parent="aaeQFXI5SlnJPCVBed2T-1">
          <mxGeometry x="370" y="670" width="120" height="60" as="geometry" />
        </mxCell>
        <mxCell id="F0br-8pcmRL6fZrP4729-5" value="PROCESSAMENTO" style="rounded=0;whiteSpace=wrap;html=1;fontStyle=1" vertex="1" parent="aaeQFXI5SlnJPCVBed2T-1">
          <mxGeometry x="520" y="80" width="120" height="60" as="geometry" />
        </mxCell>
        <mxCell id="F0br-8pcmRL6fZrP4729-6" value="DECISÃO" style="rhombus;whiteSpace=wrap;html=1;" vertex="1" parent="aaeQFXI5SlnJPCVBed2T-1">
          <mxGeometry x="374" y="70" width="80" height="80" as="geometry" />
        </mxCell>
        <mxCell id="F0br-8pcmRL6fZrP4729-11" style="edgeStyle=none;rounded=0;orthogonalLoop=1;jettySize=auto;html=1;entryX=0.5;entryY=0;entryDx=0;entryDy=0;" edge="1" parent="aaeQFXI5SlnJPCVBed2T-1" source="F0br-8pcmRL6fZrP4729-10" target="0LVw75udHM2b_XSH9-4v-24">
          <mxGeometry relative="1" as="geometry" />
        </mxCell>
        <mxCell id="F0br-8pcmRL6fZrP4729-10" value="Soma = A+B" style="rounded=0;whiteSpace=wrap;html=1;" vertex="1" parent="aaeQFXI5SlnJPCVBed2T-1">
          <mxGeometry x="370" y="430" width="120" height="60" as="geometry" />
        </mxCell>
      </root>
    </mxGraphModel>
  </diagram>
  <diagram id="V4FUF4OTDJ8xPC17CC8U" name="Page-3">
    <mxGraphModel dx="1108" dy="482" grid="1" gridSize="10" guides="1" tooltips="1" connect="1" arrows="1" fold="1" page="1" pageScale="1" pageWidth="827" pageHeight="1169" math="0" shadow="0">
      <root>
        <mxCell id="k6Uqmz7R9Btrm_WIiuVV-0" />
        <mxCell id="k6Uqmz7R9Btrm_WIiuVV-1" parent="k6Uqmz7R9Btrm_WIiuVV-0" />
        <mxCell id="ReRzlu5WdTZ6FEteGtul-1" style="edgeStyle=none;rounded=0;orthogonalLoop=1;jettySize=auto;html=1;entryX=0.5;entryY=0;entryDx=0;entryDy=0;" edge="1" parent="k6Uqmz7R9Btrm_WIiuVV-1" source="kZzHeQmRsRvBPQRrt_o--0" target="ReRzlu5WdTZ6FEteGtul-0">
          <mxGeometry relative="1" as="geometry" />
        </mxCell>
        <mxCell id="kZzHeQmRsRvBPQRrt_o--0" value="INICIO" style="rounded=1;whiteSpace=wrap;html=1;" vertex="1" parent="k6Uqmz7R9Btrm_WIiuVV-1">
          <mxGeometry x="354" y="40" width="120" height="60" as="geometry" />
        </mxCell>
        <mxCell id="2SI6VydtuaX7qjSxb1O1-1" style="edgeStyle=none;rounded=0;orthogonalLoop=1;jettySize=auto;html=1;entryX=0.5;entryY=0;entryDx=0;entryDy=0;" edge="1" parent="k6Uqmz7R9Btrm_WIiuVV-1" target="2SI6VydtuaX7qjSxb1O1-0">
          <mxGeometry relative="1" as="geometry">
            <mxPoint x="412" y="220" as="sourcePoint" />
          </mxGeometry>
        </mxCell>
        <mxCell id="ReRzlu5WdTZ6FEteGtul-0" value="A e B" style="shape=parallelogram;perimeter=parallelogramPerimeter;whiteSpace=wrap;html=1;fixedSize=1;" vertex="1" parent="k6Uqmz7R9Btrm_WIiuVV-1">
          <mxGeometry x="357" y="160" width="114" height="60" as="geometry" />
        </mxCell>
        <mxCell id="ivdWBiVYv6Tktwbnq4c--3" value="verdadeiro" style="edgeStyle=none;rounded=0;orthogonalLoop=1;jettySize=auto;html=1;" edge="1" parent="k6Uqmz7R9Btrm_WIiuVV-1" source="2SI6VydtuaX7qjSxb1O1-0">
          <mxGeometry relative="1" as="geometry">
            <mxPoint x="570" y="320" as="targetPoint" />
          </mxGeometry>
        </mxCell>
        <mxCell id="Ab7fdujDg9yuFWRZj2m_-3" value="falso" style="edgeStyle=none;rounded=0;orthogonalLoop=1;jettySize=auto;html=1;entryX=0.5;entryY=0;entryDx=0;entryDy=0;" edge="1" parent="k6Uqmz7R9Btrm_WIiuVV-1" source="2SI6VydtuaX7qjSxb1O1-0">
          <mxGeometry relative="1" as="geometry">
            <mxPoint x="414" y="410" as="targetPoint" />
          </mxGeometry>
        </mxCell>
        <mxCell id="2SI6VydtuaX7qjSxb1O1-0" value="A=B" style="rhombus;whiteSpace=wrap;html=1;" vertex="1" parent="k6Uqmz7R9Btrm_WIiuVV-1">
          <mxGeometry x="374" y="280" width="76" height="70" as="geometry" />
        </mxCell>
        <mxCell id="ivdWBiVYv6Tktwbnq4c--0" value="FIM" style="rounded=1;whiteSpace=wrap;html=1;" vertex="1" parent="k6Uqmz7R9Btrm_WIiuVV-1">
          <mxGeometry x="357" y="630" width="120" height="60" as="geometry" />
        </mxCell>
        <mxCell id="8uALD62fpwj50myrWGr1-13" style="edgeStyle=orthogonalEdgeStyle;rounded=0;orthogonalLoop=1;jettySize=auto;html=1;" edge="1" parent="k6Uqmz7R9Btrm_WIiuVV-1" source="ivdWBiVYv6Tktwbnq4c--5">
          <mxGeometry relative="1" as="geometry">
            <mxPoint x="480" y="660" as="targetPoint" />
            <Array as="points">
              <mxPoint x="620" y="660" />
            </Array>
          </mxGeometry>
        </mxCell>
        <mxCell id="ivdWBiVYv6Tktwbnq4c--5" value="Não podem ser iguais" style="shape=document;whiteSpace=wrap;html=1;boundedLbl=1;" vertex="1" parent="k6Uqmz7R9Btrm_WIiuVV-1">
          <mxGeometry x="570" y="300" width="100" height="60" as="geometry" />
        </mxCell>
        <mxCell id="Qq3B8uMvTD4xYea6mbMC-0" style="edgeStyle=none;rounded=0;orthogonalLoop=1;jettySize=auto;html=1;" edge="1" parent="k6Uqmz7R9Btrm_WIiuVV-1" source="qv-G2LTPpvyID5463_XQ-0">
          <mxGeometry relative="1" as="geometry">
            <mxPoint x="200" y="445" as="targetPoint" />
          </mxGeometry>
        </mxCell>
        <mxCell id="8uALD62fpwj50myrWGr1-6" style="edgeStyle=orthogonalEdgeStyle;rounded=0;orthogonalLoop=1;jettySize=auto;html=1;entryX=0.5;entryY=0;entryDx=0;entryDy=0;" edge="1" parent="k6Uqmz7R9Btrm_WIiuVV-1" source="qv-G2LTPpvyID5463_XQ-0" target="8uALD62fpwj50myrWGr1-4">
          <mxGeometry relative="1" as="geometry" />
        </mxCell>
        <mxCell id="qv-G2LTPpvyID5463_XQ-0" value="A&amp;gt;B" style="rhombus;whiteSpace=wrap;html=1;" vertex="1" parent="k6Uqmz7R9Btrm_WIiuVV-1">
          <mxGeometry x="376" y="410" width="76" height="70" as="geometry" />
        </mxCell>
        <mxCell id="8uALD62fpwj50myrWGr1-9" style="edgeStyle=orthogonalEdgeStyle;rounded=0;orthogonalLoop=1;jettySize=auto;html=1;exitX=0.5;exitY=0.883;exitDx=0;exitDy=0;exitPerimeter=0;" edge="1" parent="k6Uqmz7R9Btrm_WIiuVV-1" source="8uALD62fpwj50myrWGr1-0">
          <mxGeometry relative="1" as="geometry">
            <mxPoint x="350" y="670" as="targetPoint" />
            <Array as="points">
              <mxPoint x="150" y="670" />
            </Array>
          </mxGeometry>
        </mxCell>
        <mxCell id="8uALD62fpwj50myrWGr1-0" value="a" style="shape=document;whiteSpace=wrap;html=1;boundedLbl=1;" vertex="1" parent="k6Uqmz7R9Btrm_WIiuVV-1">
          <mxGeometry x="100" y="420" width="100" height="60" as="geometry" />
        </mxCell>
        <mxCell id="8uALD62fpwj50myrWGr1-12" style="edgeStyle=none;rounded=0;orthogonalLoop=1;jettySize=auto;html=1;exitX=0.5;exitY=0.867;exitDx=0;exitDy=0;exitPerimeter=0;" edge="1" parent="k6Uqmz7R9Btrm_WIiuVV-1" source="8uALD62fpwj50myrWGr1-4">
          <mxGeometry relative="1" as="geometry">
            <mxPoint x="414" y="630" as="targetPoint" />
          </mxGeometry>
        </mxCell>
        <mxCell id="8uALD62fpwj50myrWGr1-4" value="b" style="shape=document;whiteSpace=wrap;html=1;boundedLbl=1;" vertex="1" parent="k6Uqmz7R9Btrm_WIiuVV-1">
          <mxGeometry x="364" y="525" width="100" height="60" as="geometry" />
        </mxCell>
      </root>
    </mxGraphModel>
  </diagram>
</mxfile>
